<svg xmlns="http://www.w3.org/2000/svg" viewBox="0 0 216.3 101.05"><defs><style>.cls-1{fill:#221e35;}.cls-2{fill:#e7373a;}</style></defs><g id="Camada_2" data-name="Camada 2"><g id="apresenta"><path class="cls-1" d="M84.21,80.37c.08.12.16.24.23.37A3.73,3.73,0,0,0,84.21,80.37Z"/><path class="cls-1" d="M164.78,0H122.56l-7.11,0V28l.86,1.17c4.22,5.73,13.37,17.25,13.37,17.25V14.27h35.1c20.45,0,37.18,16.18,37.29,36.06a36,36,0,0,1-3.33,15.42A36.71,36.71,0,0,1,183.6,82.16a36.28,36.28,0,0,1-17.81,4.66A33.85,33.85,0,0,1,147.62,82c-1.08-.66-2.2-1.47-3.26-2.23l-1.28-1c-18.59-14.24-29.75-29.44-39.6-42.85C89.33,16.67,77.11,0,50.51,0a50.51,50.51,0,1,0,24.8,94.51,52.26,52.26,0,0,0,6.49-4.37,7.14,7.14,0,0,1-9.38-1.73l-4.67-6A36.27,36.27,0,1,1,50.51,14.27c19.4,0,28.19,12,41.5,30.08,9.9,13.48,22.22,30.25,42.41,45.73L136,91.22c1.26.92,2.74,2,4.34,2.94a48,48,0,0,0,25.49,6.89,50.51,50.51,0,0,0,24.8-6.5,51.05,51.05,0,0,0,21.07-22.83,50.17,50.17,0,0,0,4.64-21.47C216.14,22.56,193,0,164.78,0Z"/><path class="cls-1" d="M84.88,81.8c0,.07.05.13.07.2S84.9,81.87,84.88,81.8Z"/><path class="cls-2" d="M78.1,91.23a7.21,7.21,0,0,0,3.7-1c.23-.15.47-.28.69-.45A7.16,7.16,0,0,0,85,82c0-.07,0-.13-.07-.2a7,7,0,0,0-.44-1.06c-.07-.13-.15-.25-.23-.37a6.46,6.46,0,0,0-.44-.71L68,59.32A19.62,19.62,0,1,0,57.2,68.88L67.75,82.45l4.67,6A7.14,7.14,0,0,0,78.1,91.23ZM50.51,58.07A7.53,7.53,0,1,1,58,50.54,7.53,7.53,0,0,1,50.51,58.07Z"/><path class="cls-2" d="M163,35.07a15.46,15.46,0,1,0,15.45,15.45A15.46,15.46,0,0,0,163,35.07Z"/></g></g></svg>