<svg xmlns="http://www.w3.org/2000/svg" xmlns:xlink="http://www.w3.org/1999/xlink" viewBox="0 0 1043.39 566.96"><defs><style>.cls-1{isolation:isolate;}.cls-2{fill:url(#linear-gradient);}.cls-3{fill:url(#linear-gradient-2);}.cls-12,.cls-17,.cls-20,.cls-24,.cls-35,.cls-4,.cls-41,.cls-43,.cls-44,.cls-47,.cls-49,.cls-8{fill:none;}.cls-35,.cls-4,.cls-8{stroke:#1f3b70;}.cls-17,.cls-35,.cls-4,.cls-8{stroke-miterlimit:10;}.cls-4{stroke-width:0.8px;}.cls-5{fill:url(#linear-gradient-3);}.cls-6{fill:url(#linear-gradient-4);}.cls-7{fill:url(#linear-gradient-5);}.cls-9{fill:#efa900;}.cls-10{fill:#f9b039;}.cls-11{fill:#fff;}.cls-12,.cls-43,.cls-44{stroke:#1b3761;}.cls-12,.cls-20,.cls-24,.cls-41,.cls-43,.cls-44,.cls-47,.cls-49{stroke-linecap:round;stroke-linejoin:round;}.cls-12,.cls-24{stroke-width:0.75px;}.cls-13{fill:#1b3761;}.cls-14{fill:url(#linear-gradient-6);}.cls-15{fill:#501010;}.cls-16{fill:url(#linear-gradient-7);}.cls-17{stroke:#2164ae;}.cls-17,.cls-20,.cls-35,.cls-47{stroke-width:0.72px;}.cls-18{fill:url(#linear-gradient-8);}.cls-19{fill:#ef7f80;}.cls-20{stroke:#eb5859;}.cls-21{fill:#eb5859;}.cls-22{fill:#1f3b70;}.cls-23{fill:url(#linear-gradient-9);}.cls-24{stroke:#e08308;}.cls-25{fill:url(#linear-gradient-10);}.cls-26{fill:#0054a2;}.cls-27{fill:#ee9c9c;}.cls-28{opacity:0.11;}.cls-28,.cls-34,.cls-50{mix-blend-mode:multiply;}.cls-29,.cls-34{fill:#010101;}.cls-30{fill:url(#linear-gradient-11);}.cls-31{fill:#e33e3e;}.cls-32{fill:#fbdbdf;}.cls-33{fill:url(#linear-gradient-12);}.cls-34{opacity:0.2;}.cls-36{fill:#f18840;}.cls-37{font-size:53.85px;}.cls-37,.cls-51{fill:#f6f6f6;font-family:Comfortaa;}.cls-38{fill:#306bb3;}.cls-39{fill:#f7a721;}.cls-40{fill:#66440f;}.cls-41{stroke:#66440f;stroke-width:0.96px;}.cls-42{fill:#aa2c2c;}.cls-43{stroke-width:0.79px;}.cls-44{stroke-width:0.72px;}.cls-45{fill:#2a68b1;}.cls-46{fill:url(#linear-gradient-13);}.cls-47{stroke:#09478f;}.cls-48{fill:url(#linear-gradient-14);}.cls-49{stroke:#fff;}.cls-50{opacity:0.36;}.cls-51{font-size:46.71px;}</style><linearGradient id="linear-gradient" x1="521.69" y1="393.54" x2="521.69" y2="-134.55" gradientUnits="userSpaceOnUse"><stop offset="0" stop-color="#fff" stop-opacity="0"/><stop offset="0.02" stop-color="#fcfdfe" stop-opacity="0.03"/><stop offset="0.29" stop-color="#d3e1f2" stop-opacity="0.37"/><stop offset="0.54" stop-color="#b2cce9" stop-opacity="0.64"/><stop offset="0.74" stop-color="#9bbce3" stop-opacity="0.84"/><stop offset="0.91" stop-color="#8cb3df" stop-opacity="0.96"/><stop offset="1" stop-color="#87afdd"/></linearGradient><linearGradient id="linear-gradient-2" x1="887.43" y1="173.99" x2="887.43" y2="317.29" gradientUnits="userSpaceOnUse"><stop offset="0" stop-color="#28af88"/><stop offset="0.92" stop-color="#007cc1"/></linearGradient><linearGradient id="linear-gradient-3" x1="689.91" y1="173.2" x2="689.91" y2="290.51" xlink:href="#linear-gradient-2"/><linearGradient id="linear-gradient-4" x1="281.77" y1="209.9" x2="342.96" y2="209.9" xlink:href="#linear-gradient-2"/><linearGradient id="linear-gradient-5" x1="133.23" y1="196.55" x2="133.23" y2="344.3" xlink:href="#linear-gradient-2"/><linearGradient id="linear-gradient-6" x1="520.56" y1="222.01" x2="520.56" y2="521.22" gradientUnits="userSpaceOnUse"><stop offset="0" stop-color="#a7d5c4"/><stop offset="0.1" stop-color="#a1d3c4"/><stop offset="0.24" stop-color="#8fcdc4"/><stop offset="0.4" stop-color="#72c3c3"/><stop offset="0.58" stop-color="#4ab5c2"/><stop offset="0.76" stop-color="#17a3c1"/><stop offset="0.84" stop-color="#009bc1"/></linearGradient><linearGradient id="linear-gradient-7" x1="717.92" y1="337.95" x2="781.15" y2="337.95" gradientUnits="userSpaceOnUse"><stop offset="0" stop-color="#1c2a4d" stop-opacity="0"/><stop offset="1" stop-color="#1c2a4d"/></linearGradient><linearGradient id="linear-gradient-8" x1="750.16" y1="228" x2="826.6" y2="228" xlink:href="#linear-gradient-7"/><linearGradient id="linear-gradient-9" x1="733.79" y1="170.44" x2="741.84" y2="170.44" gradientUnits="userSpaceOnUse"><stop offset="0" stop-color="#a87313" stop-opacity="0"/><stop offset="0.96" stop-color="#a87313"/></linearGradient><linearGradient id="linear-gradient-10" x1="789.34" y1="186.13" x2="831.14" y2="186.13" xlink:href="#linear-gradient-9"/><linearGradient id="linear-gradient-11" x1="508.75" y1="85.81" x2="508.75" y2="183.97" gradientUnits="userSpaceOnUse"><stop offset="0" stop-color="#eb5859" stop-opacity="0"/><stop offset="0.98" stop-color="#eb5859"/></linearGradient><linearGradient id="linear-gradient-12" x1="508.75" y1="551.88" x2="508.75" y2="499.86" gradientUnits="userSpaceOnUse"><stop offset="0" stop-color="#0054a2" stop-opacity="0"/><stop offset="1" stop-color="#0054a2" stop-opacity="0.4"/></linearGradient><linearGradient id="linear-gradient-13" x1="269.22" y1="356.86" x2="175.79" y2="288.63" gradientUnits="userSpaceOnUse"><stop offset="0" stop-color="#0054a2" stop-opacity="0"/><stop offset="0.92" stop-color="#0054a2"/></linearGradient><linearGradient id="linear-gradient-14" x1="180.04" y1="215.39" x2="236.9" y2="215.39" xlink:href="#linear-gradient-13"/></defs><g class="cls-1"><g id="Camada_2" data-name="Camada 2"><g id="apresenta"><g id="ILUSTRACAO"><path class="cls-2" d="M12.63,478.27S-34.59,361.79,53.58,333.79c0,0-39.89-171,113.29-199.2,0,0,102.91-223.29,370.62-68.92,0,0,144.89-48.35,202.07,75.54,0,0,212.56,9.31,205.05,177.24,0,0,102.71,24.86,98.66,159.82Z"/><path class="cls-3" d="M888.52,142.1c24.93,0,26.14,32,28.08,51.31s16.14,25.58,17.72,46-6.69,27.49-3.15,42.06,8,33.6-1.07,45-14.42,17.83-26.49,32.26c-9.18,11-35.82,19.55-55.11-7.61s-1.76-45.66-2.26-56.29-9.94-19.34-4.82-44.7S865,211,865.82,188.94,869.5,142.1,888.52,142.1Z"/><line class="cls-4" x1="887.07" y1="177.17" x2="887.07" y2="419.58"/><path class="cls-4" d="M922.25,231.68s-18.13,37-35.18,54.62"/><line class="cls-4" x1="909.65" y1="231.68" x2="910.56" y2="253.23"/><path class="cls-4" d="M848.24,248.25s12.32,29.39,38.83,47.5"/><path class="cls-4" d="M862.15,242.46a181.85,181.85,0,0,1-4.32,22.93"/><path class="cls-4" d="M915,295.75s-13.4,30.18-28,48.29"/><path class="cls-4" d="M848.24,314.91c1,1.18,19.53,30.31,38.83,40.94"/><path class="cls-5" d="M689.46,158.62c21.74.66,22.76,32.3,21.75,56.57-.26,6.3,10.24,8,7.88,24.2s-8.2,18.05-5.15,31.43,1.52,39.36-24.48,39.36-31.26-22.55-28.37-37.25,4.72-21.84,3.67-30.47-3.67-25,2.89-31.39,11.29-11.63,10.24-22.13S674.37,158.16,689.46,158.62Z"/><line class="cls-4" x1="691.29" y1="172.84" x2="691.29" y2="351.12"/><path class="cls-4" d="M670.35,265.39s10.29,11.82,20.94,25.58"/><path class="cls-4" d="M703.73,258.86c-.26,1-7.15,10.8-12.44,18.09"/><path class="cls-6" d="M313.21,138.25c17.09-1.44,17.51,21.25,17.87,34.94s8.28,14.41,6.48,32.06,5.4,16.29,5.4,31.2-3.67,45.17-29.75,45.17-30.43-22.73-31.33-39.1,3.94-8.38,6.58-25.88-.61-23.63,5.51-31.2S296.07,139.69,313.21,138.25Z"/><line class="cls-4" x1="313.21" y1="170.77" x2="313.21" y2="343.88"/><line class="cls-4" x1="323.94" y1="177.33" x2="313.21" y2="200.36"/><path class="cls-4" d="M295.8,190.36s4.32,18.29,17.41,27.14"/><path class="cls-4" d="M332.8,219.06s-3.36,19.68-19.59,31.88"/><path class="cls-4" d="M292.25,235.2s10,24.8,21,32.87"/><path class="cls-7" d="M134.52,171.45c20.38-.44,17.65,39.08,23,54.29s14.67,21.44,12.43,38.9-3.5,33.28,2.59,39.68,5.35,22.37-3.84,36.06,11.72,40-32.43,42.24S99.7,355.46,95.46,341.8s-9.06-23.27-1.56-30.74,4.9-20,2.89-28.53-7.81-37.44,4.47-44,13-24.18,14.79-34.78S121.13,171.73,134.52,171.45Z"/><line class="cls-8" x1="136.98" y1="188.88" x2="136.98" y2="474.2"/><path class="cls-8" d="M123.73,198.59s3.67,10.16,13.25,24.73"/><path class="cls-8" d="M156.79,241S146.3,262,137,271.37"/><line class="cls-8" x1="149.31" y1="238.67" x2="150.61" y2="252.28"/><path class="cls-8" d="M99.72,256.2s10.36,26.56,37.26,58.05"/><line class="cls-8" x1="114.67" y1="256.2" x2="110.38" y2="277.09"/><path class="cls-8" d="M165.85,305.2S150.63,329,137,339.91"/><ellipse class="cls-9" cx="76.42" cy="385.34" rx="12.88" ry="17.3"/><ellipse class="cls-9" cx="931.57" cy="384.55" rx="12.88" ry="17.3"/><path class="cls-9" d="M680.82,127.56c-3.41,2.25-4.77,4.07-6.44,8.65-1.68-4.58-3-6.4-6.44-8.65,3.41-2.25,4.76-4.07,6.44-8.65C676.05,123.49,677.41,125.31,680.82,127.56Z"/><path class="cls-9" d="M281.77,286.62c-3.41,2.25-4.77,4.07-6.44,8.65-1.67-4.58-3-6.4-6.44-8.65,3.41-2.25,4.77-4.07,6.44-8.65C277,282.55,278.36,284.37,281.77,286.62Z"/><circle class="cls-10" cx="397.36" cy="384.55" r="24.99"/><path class="cls-11" d="M408.11,391.21a15.2,15.2,0,0,1-8.51,4.25l1.43,3.48a4.74,4.74,0,1,0,8.78-3.6Z"/><path class="cls-12" d="M383.56,386.9a15.25,15.25,0,0,0,27.59,0"/><ellipse class="cls-13" cx="391.37" cy="379.02" rx="3.65" ry="6.32"/><ellipse class="cls-13" cx="403.34" cy="379.02" rx="3.65" ry="6.32"/><path class="cls-14" d="M63.55,488h914s.67-29.17-31.49-40.86C937.42,444,935.85,430.64,917,420.4s-30.7-2.85-40.93-18.74-33.07-24.56-52.75-23-31.49,7.87-52-11S761,337.86,728,333c-38.58-5.72-47.76-17.79-55.9-27.5-7.79-9.3-10.74-32.94-48.63-35.43-12-.78-23.53-1.83-47.15-11.28s-31-37.79-49.86-39.89-33.07,12.6-33.07,12.6-4.72-37.79-25.72-39.1-25.19,38.57-38.83,43.3-39.34,4.41-55.64,39.24c-4.72,10.09-25.67,2.66-39.36,30-3.15,6.29-20,2.36-28.87,13.51s-4.2,38.78-10,43.34-10.51,9.8-13.13,32.37c0,0,4.08-24.45-12.06-32.37,0,0-1.07-30.74-13.73-33.1S243.44,339.31,237.15,344s-17.72,1.18-23.23,14.17-1.57,17.71-9,23.62-8.66,7.65-10.63,17.21.79-2-.39,2.62-16.14,3.86-19.29,45.12c0,0-5.46-27.52-18.9-27.95s-18.5,5.51-22.83.39-1.18-21.65-11.41-22.44-10.63,23.88-18.11,36.74S62.77,463.54,63.55,488Z"/><path class="cls-15" d="M751,466.62l3.15,30.57h-8.79l-.79-2.5-3,3h-23.6s-1.06-3.8.77-5,6.69-2.23,6.69-2.23L735.87,483l-2-16.4Z"/><path class="cls-15" d="M852.1,466.62,858,497.19h-8.79l-.79-2.5-3,3H821.81s-1.06-3.8.78-5,6.69-2.23,6.69-2.23L839.76,483l-4.71-16.4Z"/><path class="cls-13" d="M819.73,214.16s6.29,13.39,9,44.48,6.3,105.89,6.3,105.89,18.89,68.1,24.4,104.32h-30.7s-27.95-55.9-35.43-91.33S781.15,287,781.15,287L758.32,370s.79,2.37,0,7.09,2,54.32-2.76,91.72H727.22s-12.2-53.54-8.66-102.74,26.77-131.08,35.82-150Z"/><path class="cls-16" d="M731.05,326.25a27.2,27.2,0,0,0-9.87,17.11c-1.21,8.06-2.11,15.74-2.62,22.75a316.46,316.46,0,0,0,.66,48.25c9.64-5.9,14.27-28.87,24.53-30.54,4.79-.78,10-3.35,14.5-6.05,0-.26,0-.48.07-.64.79-4.72,0-7.09,0-7.09L781.15,287l-1.81-25.45A166.68,166.68,0,0,1,731.05,326.25Z"/><path class="cls-17" d="M781.15,287c-.79-9.45-4.3-54.06-2.14-66"/><path class="cls-17" d="M808.31,217.31s-1.52,31.68,19.51,32.28"/><path class="cls-17" d="M772.48,223.48s-2.37,19.81,0,24.54a12,12,0,0,0,6.45,6"/><path class="cls-18" d="M826.6,241c-3-18.56-6.87-26.81-6.87-26.81l-65.35,2c-1.19,2.48-2.62,6.06-4.22,10.5,3.82,3.25,12,7.8,27.84,7.41C799.21,233.53,813.43,245,826.6,241Z"/><path class="cls-19" d="M839.9,184a326.92,326.92,0,0,0,15.67,31c9.75,17,32.87,13.37,45.29,0s31.53-41.28,31.53-41.28,4.64-1,5.23-3c2.36-1.18,3.35-2.5,3.67-3.87,1.78-1.12,3.81-3.94,3.22-4.86s-2.43,1.38-3.35,2.1-4.46,1.38-4.46,1.38,5.25-3.15,6.1-4.92.07-2.69-.59-2.49-2,2.62-3.28,3.47a35,35,0,0,1-6.16,2.63c-.86.19-2.43-.86-.6-3.15s1.91-3.48,1.38-3.61-2.23,2.16-3.15,3.15a11,11,0,0,0-3.28,7.54l-44.94,25-4.85-11Z"/><path class="cls-20" d="M931.57,170.86s2.8.2,3.34-1.42.83-3.61,1.63-3.45c1.21.26,1.08,4.68,1.08,4.68s2.45-7,3.08-6.85.46,2.69.46,2.69"/><path class="cls-20" d="M882.18,193s-6.46,2.62-9.21,5.77"/><path class="cls-21" d="M861.65,194.29c4.05-2.84,11-4,16.08-4.55a2.09,2.09,0,0,0,1.71-2.93L877.33,182,839.9,184s2,4.8,5.69,12.2a5.28,5.28,0,0,0,6.37,2.7A38.46,38.46,0,0,0,861.65,194.29Z"/><path class="cls-22" d="M771.83,85.45c1.64-1.48.23-3.15,0-6.6s3.09-8.56,0-11c.46-5,2.35-7.77-5.28-9.94s-13.35-2.75-18.76-5-13.58.2-11.81,9.65c0,0-4.13-.69-4.43,6.88s9.94,6.7,15.85,12S771.83,85.45,771.83,85.45Z"/><path class="cls-19" d="M743.62,68.78s7,4.86,15,5.12c0,0,2.23,8.79,3.68,9s2.36-6.43,2.36-6.43,2.1-1.7,4.2-.65.39,6.95-1.71,8.13l4.72,1.45s7.09,13,10.76,14.17a51.77,51.77,0,0,0,8.66,1.7s-.52,17-18.89,17.58c-12.6.4-15.62-11.81-15.62-11.81l4.33-2.09-3.93-7.88s-5,3-8.27,2.5-7-9.84-6.17-12.73a19.56,19.56,0,0,0-.43-9.81C741.2,74,742.31,70,743.62,68.78Z"/><path class="cls-21" d="M761.07,102c1.52-3.75,4.53-5.81,5.48-11.71s-.75-5.12-1-3.74c-1.75,8.18-5,8.85-8.36,10.59l3.07,6.14A3.8,3.8,0,0,0,761.07,102Z"/><path class="cls-10" d="M774.85,116.35c12.48-1.71,15.35-16.93,15.35-16.93s42.91,3.54,57.67,15.94,39.56,68.1,39.56,68.1-23.22,7.09-49,3.15l-7.28-13.78s-.59,2.76-3.54.79l-3.94,42.12s2.56.39.79,2.16-19.09.59-36.61,4.14-36.61.39-37.79-7.29.79-10.62,0-16.53-8.21-28.73-8.21-28.73l-7.73,21.65s-25.59-3.35-41.33-8.86c0,0,11-32.28,15.55-45.86s11.22-27.36,50-31.29C758.32,105.13,760.48,118.31,774.85,116.35Z"/><path class="cls-23" d="M735.19,188.1l6.65-18.61c-1.5-5.19-2.55-9.25-2.42-13.45s-5.11-5.38-5,2.75C734.55,165.57,732.48,181.35,735.19,188.1Z"/><path class="cls-24" d="M739.56,141.21s-1.47,13.49.41,20.88"/><path class="cls-24" d="M733.26,155.64s-8.27-13.51-6.43-15.22,4.14,5.25,4.14,5.25"/><path class="cls-24" d="M731.81,165s-7.74-6.3-7.21-9.32"/><path class="cls-25" d="M824.45,217.9c1.77-1.77-.79-2.16-.79-2.16l3.94-42.12c2.95,2,3.54-.79,3.54-.79-3-6.56-8.66-22.7-11.15-22.3s-.53,21-1.44,27.81-10.11,22-10.9,30-13,12.4-18.31,13.36C806.33,218.56,822.73,219.62,824.45,217.9Z"/><path class="cls-24" d="M822,152.28c-4.5-6.81-4.89-18.22,1.7-26.19"/><path class="cls-24" d="M811.85,137.4s.48,9.94,6.79,14.47"/><path class="cls-20" d="M872.67,221.75s2.07-2.47,6.2-1"/><line class="cls-17" x1="827.6" y1="459.2" x2="858.02" y2="459.2"/><line class="cls-17" x1="756.6" y1="459.2" x2="728.8" y2="459.2"/><path class="cls-26" d="M692.92,171.68l12.54.18a2,2,0,0,0,1.89-2.56l-8-24.53A2.58,2.58,0,0,0,696.9,143l-12.54-.17a2,2,0,0,0-1.88,2.56l8,24.53A2.55,2.55,0,0,0,692.92,171.68Z"/><path class="cls-22" d="M695,146.73a2,2,0,0,0,1.75,1.34.91.91,0,0,0,.89-1.3,2,2,0,0,0-1.75-1.34A.91.91,0,0,0,695,146.73Z"/><path class="cls-22" d="M689.46,147.23l4,.06c.33,0,.5-.25.4-.58h0a.91.91,0,0,0-.78-.59l-4.06-.06a.4.4,0,0,0-.39.58h0A.88.88,0,0,0,689.46,147.23Z"/><path class="cls-19" d="M698,183.93l-1.7,5-4.22-19.26a6.91,6.91,0,0,0,2-3.93s4.42-3.47,4-4.3-5.27,2.13-5.92,2.82.21-2.26,3-4.82,3.15-4.92,2.56-5.41-2.56,2.46-4.82,4.62a23.08,23.08,0,0,0-3.15,3.54s.89-4.23,2.16-5.9,3.74-3.74,3.06-4.63-2.86,1.19-4.63,3.65a21.08,21.08,0,0,0-2.66,5.31s-.78-3.35,0-5.22,2.66-4.62,1.38-4.62-3.35,4.13-3.94,6a17,17,0,0,0,.69,12.79s-5.7,35.27-3.15,53.91c2.33,16.94,20.15,20.85,28,11.14C723.82,218.05,731,190.69,731,190.69S707.61,187.35,698,183.93Z"/><path class="cls-20" d="M696.28,188.94a176.62,176.62,0,0,1,4.9,21.48"/><path class="cls-21" d="M696.91,187.07c1.53,1.29,5.92,4.42,13.92,5.92,7.24,1.36,12.48,5.28,17.2,7.17,1.94-5.65,2.94-9.47,2.94-9.47s-23.36-3.34-33-6.76Z"/><path class="cls-20" d="M696.34,232.05a7.44,7.44,0,0,1,7.39,2.06"/><rect class="cls-26" x="387.91" y="63.48" width="241.69" height="445.63" rx="27.31"/><path class="cls-11" d="M586.6,72.92H571.51a8.71,8.71,0,0,0-8.7,8.7h0a7.08,7.08,0,0,1-7.08,7.08h-94a7.09,7.09,0,0,1-7.09-7.08h0a8.7,8.7,0,0,0-8.69-8.7H430.9a33.55,33.55,0,0,0-33.54,33.55V466.1a33.55,33.55,0,0,0,33.54,33.55H586.6a33.55,33.55,0,0,0,33.55-33.55V106.47A33.55,33.55,0,0,0,586.6,72.92Z"/><path class="cls-27" d="M397.36,433.52V466.1a33.55,33.55,0,0,0,33.54,33.55H586.6a33.55,33.55,0,0,0,33.55-33.55V433.52Z"/><g class="cls-28"><path class="cls-29" d="M580.42,477.5H437.09a12.86,12.86,0,0,1-12.86-12.86h0a12.86,12.86,0,0,1,12.86-12.86H580.42a12.86,12.86,0,0,1,12.86,12.86h0A12.86,12.86,0,0,1,580.42,477.5Z"/></g><path class="cls-30" d="M586.6,72.92H571.51a8.71,8.71,0,0,0-8.7,8.7,7.08,7.08,0,0,1-7.08,7.08h-94a7.09,7.09,0,0,1-7.09-7.08,8.7,8.7,0,0,0-8.69-8.7H430.9a33.55,33.55,0,0,0-33.54,33.55v1H620.15v-1A33.55,33.55,0,0,0,586.6,72.92Z"/><path class="cls-11" d="M580.42,475.55H437.09a12.86,12.86,0,0,1-12.86-12.86h0a12.86,12.86,0,0,1,12.86-12.86H580.42a12.86,12.86,0,0,1,12.86,12.86h0A12.86,12.86,0,0,1,580.42,475.55Z"/><path class="cls-31" d="M580.42,475.55H567.49a12.86,12.86,0,0,1-12.86-12.86h0a12.86,12.86,0,0,1,12.86-12.86h12.93a12.86,12.86,0,0,1,12.86,12.86h0A12.86,12.86,0,0,1,580.42,475.55Z"/><polygon class="cls-32" points="570.1 462.69 585.16 462.69 569.07 454.9 570.1 462.69"/><polygon class="cls-11" points="570.1 462.69 585.16 462.69 569.07 470.49 570.1 462.69"/><circle class="cls-27" cx="481.18" cy="462.69" r="1.95"/><circle class="cls-27" cx="491.02" cy="462.69" r="1.95"/><circle class="cls-27" cx="500.86" cy="462.69" r="1.95"/><circle class="cls-27" cx="510.7" cy="462.69" r="1.95"/><circle class="cls-27" cx="520.54" cy="462.69" r="1.95"/><path class="cls-33" d="M629.6,567V552.41a43,43,0,0,0-43-43H430.91a43,43,0,0,0-43,43V567Z"/><path class="cls-34" d="M360.86,309.16h158.3a8.32,8.32,0,0,0,8.32-8.32V241.3a8.31,8.31,0,0,0-8.32-8.32H381.59a8.31,8.31,0,0,0-8.32,8.32v53a5,5,0,0,1-1.79,3.84l-11.22,9.39A.93.93,0,0,0,360.86,309.16Z"/><path class="cls-35" d="M332.8,42.91s36.21-16.54,64.56-13S416.25,50.24,406,51.1s-19.29-26.3,22.83-25.91S510.33,30.7,558,40.54s82.27-4.33,88.17-15.35S643.38,2.76,629.6,3.54s-18.72,9.86-16.14,20.12C618.18,42.51,676.05,36,692.78,67.6"/><polygon class="cls-10" points="685.63 58.82 707.07 87.42 698.5 39.54 685.63 58.82"/><polygon class="cls-36" points="685.63 58.82 707.07 87.42 664.19 64.45 685.63 58.82"/><path class="cls-34" d="M476.66,170.77a35.73,35.73,0,0,1-35.4,35.72H386.64a35.72,35.72,0,0,1-35.72-35.72V135.05h90A35.72,35.72,0,0,1,476.66,170.77Z"/><path class="cls-21" d="M472.3,166.62a35.72,35.72,0,0,1-35.39,35.72H382.28a35.72,35.72,0,0,1-35.72-35.72V130.9h90A35.72,35.72,0,0,1,472.3,166.62Z"/><text class="cls-37" transform="translate(369.66 187.12)">Oi!</text><path class="cls-38" d="M355.37,59.5a28.9,28.9,0,0,1-28.64,28.9H282.54a28.9,28.9,0,0,1-28.9-28.9V30.61h72.83A28.89,28.89,0,0,1,355.37,59.5Z"/><path class="cls-10" d="M797.07,57a28.9,28.9,0,0,1,28.63-28.9h44.19A28.9,28.9,0,0,1,898.79,57v28.9H826A28.9,28.9,0,0,1,797.07,57Z"/><circle class="cls-10" cx="303.35" cy="59.5" r="19.85" transform="translate(176.1 341.23) rotate(-76.79)"/><path class="cls-21" d="M300.49,51.21a2.68,2.68,0,0,0-2.59.75,2.65,2.65,0,0,0-2.58-.75c-1.49.45-1.59,2.27-.72,3.52a8.78,8.78,0,0,0,3.3,2.76,8.74,8.74,0,0,0,3.31-2.76C302.08,53.48,302,51.66,300.49,51.21Z"/><path class="cls-21" d="M311.38,51.21a2.65,2.65,0,0,0-2.58.75,2.68,2.68,0,0,0-2.59-.75c-1.48.45-1.59,2.27-.72,3.52a8.74,8.74,0,0,0,3.31,2.76,8.78,8.78,0,0,0,3.3-2.76C313,53.48,312.86,51.66,311.38,51.21Z"/><path class="cls-11" d="M290.68,62A13,13,0,0,0,316,62Z"/><circle class="cls-39" cx="574.71" cy="389.21" r="24.02"/><path class="cls-40" d="M574.71,397.26a43.18,43.18,0,0,1-14.56-2.44.21.21,0,0,0-.24.34,20,20,0,0,0,29.61,0,.22.22,0,0,0-.24-.34A43.19,43.19,0,0,1,574.71,397.26Z"/><polyline class="cls-41" points="564.71 380.31 570.39 384.76 564.71 389.21"/><polyline class="cls-41" points="584.71 380.31 579.04 384.76 584.71 389.21"/><path class="cls-21" d="M574.71,397.26a46,46,0,0,1-7.16-.57v6.86c0,3.17,3.21,5.74,7.16,5.74s7.16-2.57,7.16-5.74v-6.86A46,46,0,0,1,574.71,397.26Z"/><path class="cls-42" d="M574.71,397.26l-.75,0v6.41a.75.75,0,0,0,.75.76.76.76,0,0,0,.76-.76v-6.41C575.21,397.24,575,397.26,574.71,397.26Z"/><circle class="cls-10" cx="574.71" cy="227.3" r="24.02"/><ellipse class="cls-13" cx="567.43" cy="221.07" rx="3.14" ry="5.44"/><path class="cls-43" d="M577.65,222.71s3.25-4.12,9-1.74"/><path class="cls-44" d="M558.37,228.08a17.1,17.1,0,0,0,32.68,0"/><path class="cls-19" d="M234.52,203.38v14.94s15,50.45,19.16,135.54,8.4,127.9,8.4,127.9,6.56,6.15,13.05,7.14,8.66,2.55,4.92,4.72-16.33,1-20.07,0-9.25.2-9.06-2.56,1.38-9.84,1.38-9.84-9.88-28.28-15.15-44.48c-10.37-31.82-7.48-63.84-7.48-63.84l-20.08-80.43s-21.26,81.29-27.75,102.94-31.49,92.3-31.49,92.3,10.43,5.71,13.19,5.91,6.88,1.77,5.7,4.13-17.32.79-21.45,0-12-2.16-12-2.16.4-6.5,4.33-11c0,0,2.17-87,23.43-117.7,0,0,15.34-109.48,13.38-122.42-3.38-22.35,8.3-41.07,8.3-41.07Z"/><path class="cls-45" d="M253.68,353.86c-4.14-85.09-19.16-135.54-19.16-135.54V203.38h-49.3s-11.68,18.72-8.3,41.07c2,12.94-13.38,122.42-13.38,122.42-9.16,13.22-18.81,36.87-23,59.52a6.07,6.07,0,0,0,6,7.13h22.7c5.27-15.37,10.21-30.1,12.61-38.11,6.49-21.65,27.75-102.94,27.75-102.94l20.08,80.43s-5.9,25.88.67,54.23a8.21,8.21,0,0,0,8,6.39h19.95C256.9,413.3,255.28,386.76,253.68,353.86Z"/><path class="cls-46" d="M235,382.74c7.4,4.11,15.24,10.76,21.14,16.3q-1.17-20.19-2.42-45.3h0c-26.46-21.39-34.09-86.86-36.86-86.86s-3.68,10.5-7.22,25.59l20.08,80.43h0A10.22,10.22,0,0,0,235,382.74Z"/><path class="cls-47" d="M209.89,293.68s7.57-38.21,10.33-48.64"/><path class="cls-48" d="M234.52,218.32V203.38h-49.3A62,62,0,0,0,180,214.85c7.12,1.85,26.27,6.68,34,7.25,6.2.45,15.65,3.59,22.88,5.31C235.45,221.44,234.52,218.32,234.52,218.32Z"/><path class="cls-19" d="M233.11,129.21A20.72,20.72,0,0,1,248,138.3c4.67,7.1,18.27,50.84,18.27,50.84s37.5-41.09,38.19-43.67,2-11,2.56-15.08,1-6.3,2.16-6,0,8.86,1.08,9.64,4.73-10.53,6.3-10.23-3.64,10.53-2.16,11.32,5.11-5.71,6.1-5-5.12,6.49-4,7.48,4.63-3.84,4.73-1.78-4.83,4.14-5.91,6.5-1,4.23-4.33,5.9c0,0-22,65.94-46.25,65.94s-38-58.46-38-58.46Z"/><path class="cls-20" d="M307.31,139.74s5-4.43,5.81-2.66-3.64,3-4,4.92.79,3.05-1.77,4.92"/><path class="cls-21" d="M258.82,177a7.64,7.64,0,0,0,1.23-7.11c-4.22-12.7-9.48-27.65-12.05-31.55a20.72,20.72,0,0,0-14.89-9.09l-6.4,26.47s5.56,23.55,15.81,40.75c1.5-3.52,3.89-7.82,7.35-10.24C253,184,256.28,180.26,258.82,177Z"/><path class="cls-20" d="M266.27,189.14a15.31,15.31,0,0,0-4.19,6.43"/><path class="cls-19" d="M234.69,86.3c.88,3.58-2.26,7.49-1.78,11.32a30.26,30.26,0,0,1,.56,9.15,8.9,8.9,0,0,1-8.92,7.48v11.28a2,2,0,0,0,1.69,2l1.46.23a.42.42,0,0,1,.31.63,14,14,0,0,1-12.51,6.75c-9.55,0-15.45-8.37-15.45-8.37l2.76-.74a2.58,2.58,0,0,0,1.9-2.15l1.73-12.76S203.59,99.75,204,92.39s5.71-14.75,14.86-13.76S234.69,86.3,234.69,86.3Z"/><path class="cls-21" d="M213.23,108.45c-2.46-2.86-4.82,1.28,0,4.52,4.38,3,6.1,8.48,11.32,6.81v-5.53C218.94,114.15,215.69,111.3,213.23,108.45Z"/><path class="cls-22" d="M226.12,128.42s-.29-2.16,1.48-2.06a44.6,44.6,0,0,1,4.56.67,3.41,3.41,0,0,1,2.61,2.16c1.44,3.78,4.85,12.5,7.2,16.75,3.05,5.51,8.56,15.84,4.72,28.15s-11.71,21-10.23,28-2.17,5.12-7.48,5.51-39.56,1-45.57.59-.49-56.09-.49-56.09,4.44-14.49,4.11-21.22a3.14,3.14,0,0,1,2-3c3.09-1.21,8.21-3.12,9.22-3,1.48.2,3.41,1.67,6.11,4.82S222.68,134.23,226.12,128.42Z"/><path class="cls-38" d="M258.74,169.08l-12.43.18a2.21,2.21,0,0,1-2.13-2.91l8-24.42a2.2,2.2,0,0,1,2.07-1.52l12.43-.18a2.22,2.22,0,0,1,2.14,2.91l-8,24.42A2.2,2.2,0,0,1,258.74,169.08Z"/><path class="cls-22" d="M256.39,144.13a2,2,0,0,1-1.75,1.34.91.91,0,0,1-.89-1.3,2,2,0,0,1,1.75-1.34A.91.91,0,0,1,256.39,144.13Z"/><path class="cls-22" d="M262,144.63l-4.06.06a.4.4,0,0,1-.39-.58h0a.91.91,0,0,1,.78-.59l4.06-.06a.4.4,0,0,1,.39.58h0A.88.88,0,0,1,262,144.63Z"/><path class="cls-22" d="M252.3,481.22s-1.18,7.08-1.38,9.84,5.32,1.57,9.06,2.56,16.33,2.16,20.07,0,1.58-3.74-4.92-4.72-13.05-7.14-13.05-7.14C256.21,487.48,252.3,481.22,252.3,481.22Z"/><path class="cls-22" d="M147.79,497.75c4.13.79,20.27,2.36,21.45,0s-3-3.93-5.7-4.13-13.19-5.91-13.19-5.91c-9.57,2.24-10.24-3.14-10.24-3.14-3.93,4.52-4.33,11-4.33,11S143.66,497,147.79,497.75Z"/><path class="cls-19" d="M189.67,127.63s-13.88,2.07-18.26,20.67c-5.71,24.21,3.65,62.62,5.71,69.09,3.21,10.13,15.81,12.62,26.57,2.65s46.05-52.74,46.05-52.74,5.64.59,7.48-2.1c3.94-1.38,4.46-3.42,4.46-3.42s2.95-.78,3.09-3.6c2.42-2.3,2.88-6.11,1.7-6s-3.8,4.72-4.92,5.58-6.17,3-7.74,2.29-1.9-1.51-1.12-4.26,2.76-2.95,2.3-3.87-2.16-.46-3.48,1.38-5.44,9.9-5.44,9.9l-50.22,32.41-7-39.91a6.09,6.09,0,0,1,.16-2.78C190.08,149.25,192.67,138.52,189.67,127.63Z"/><path class="cls-20" d="M195.85,195.57a66.19,66.19,0,0,0-8.5,6.56"/><path class="cls-20" d="M187.35,220.83s2.26,2.85,7.58,0"/><path class="cls-15" d="M234.69,86.3H219.53a24.74,24.74,0,0,1-5.9,10.63s-1.48-3.24-3.94-1.57-2.85,8.85.79,8.66l-4,7.08s-4.72-5.41-5.21-17,6.2-22.14,20-20.17C230.21,75.19,233.9,82.86,234.69,86.3Z"/><ellipse class="cls-15" cx="200.05" cy="76.87" rx="10.39" ry="8.1" transform="translate(-3.48 143.98) rotate(-39.27)"/><path class="cls-34" d="M659.45,191.05H490.38a5.39,5.39,0,0,1-5.39-5.39V135.19a5.39,5.39,0,0,1,5.39-5.4H641.65a5.4,5.4,0,0,1,5.4,5.4v41a5,5,0,0,0,1.78,3.83l11.22,9.39A.93.93,0,0,1,659.45,191.05Z"/><path class="cls-38" d="M663.26,185.37H494.19A5.39,5.39,0,0,1,488.8,180V129.51a5.39,5.39,0,0,1,5.39-5.4H645.46a5.4,5.4,0,0,1,5.4,5.4v41a5,5,0,0,0,1.79,3.83l11.21,9.39A.93.93,0,0,1,663.26,185.37Z"/><line class="cls-49" x1="508.75" y1="137.71" x2="631.4" y2="137.71"/><line class="cls-49" x1="508.75" y1="149.07" x2="631.4" y2="149.07"/><line class="cls-49" x1="508.75" y1="160.42" x2="631.4" y2="160.42"/><line class="cls-49" x1="508.75" y1="171.78" x2="562.42" y2="171.78"/><path class="cls-21" d="M355.07,303.48h158.3a8.31,8.31,0,0,0,8.32-8.32V235.62a8.31,8.31,0,0,0-8.32-8.32H375.8a8.31,8.31,0,0,0-8.32,8.32v53a5,5,0,0,1-1.79,3.83l-11.21,9.39A.93.93,0,0,0,355.07,303.48Z"/><line class="cls-49" x1="500.88" y1="248.36" x2="387.29" y2="248.36"/><line class="cls-49" x1="500.88" y1="259.71" x2="387.29" y2="259.71"/><line class="cls-49" x1="500.88" y1="271.07" x2="387.29" y2="271.07"/><line class="cls-49" x1="500.88" y1="282.42" x2="451.18" y2="282.42"/><path class="cls-34" d="M363.57,366.78l16.94-6.92a4.43,4.43,0,0,0,2.76-4.11v-16.4a8.15,8.15,0,0,1,8.15-8.15h78.47a8.15,8.15,0,0,1,8.16,8.15v57a8.16,8.16,0,0,1-8.16,8.16H391.42a8.16,8.16,0,0,1-8.15-8.16V380a4.45,4.45,0,0,0-2.76-4.11L363.57,369A1.18,1.18,0,0,1,363.57,366.78Z"/><path class="cls-10" d="M358.61,361.66l16.94-6.92a4.43,4.43,0,0,0,2.75-4.1v-16.4a8.16,8.16,0,0,1,8.16-8.16h78.47a8.15,8.15,0,0,1,8.15,8.16v57a8.15,8.15,0,0,1-8.15,8.16H386.46a8.16,8.16,0,0,1-8.16-8.16v-16.4a4.43,4.43,0,0,0-2.75-4.1l-16.94-6.92A1.18,1.18,0,0,1,358.61,361.66Z"/><path class="cls-21" d="M847.28,37.1a12.64,12.64,0,0,0-7.06,20.63,18.3,18.3,0,0,1,1.35,1.7,64.16,64.16,0,0,1,7.59,17.19.69.69,0,0,0,1.32,0,63.7,63.7,0,0,1,7.58-17.18,15.94,15.94,0,0,1,1.36-1.71A12.66,12.66,0,0,0,847.28,37.1Zm2.54,17.48a5.08,5.08,0,1,1,5.07-5.08A5.09,5.09,0,0,1,849.82,54.58Z"/><g class="cls-50"><path class="cls-29" d="M540.06,6.4H477.45a17.31,17.31,0,0,0-17.31,17.31V69.32a17.31,17.31,0,0,0,17.31,17.31h6.61a17.28,17.28,0,0,1,14.5,7.86l8.65,13.27a1.84,1.84,0,0,0,3.09,0L519,94.49a17.28,17.28,0,0,1,14.5-7.86h6.61a17.31,17.31,0,0,0,17.31-17.31V23.71A17.31,17.31,0,0,0,540.06,6.4Z"/></g><path class="cls-10" d="M540.06,0H477.45a17.31,17.31,0,0,0-17.31,17.31v45.6a17.31,17.31,0,0,0,17.31,17.31h6.61a17.31,17.31,0,0,1,14.5,7.86l8.65,13.28a1.84,1.84,0,0,0,3.09,0L519,88.08a17.31,17.31,0,0,1,14.5-7.86h6.61a17.31,17.31,0,0,0,17.31-17.31V17.31A17.31,17.31,0,0,0,540.06,0Z"/><path class="cls-34" d="M540.25,309.16a35.71,35.71,0,0,1,35.39-35.72h54.63A35.72,35.72,0,0,1,666,309.16v35.72H576A35.72,35.72,0,0,1,540.25,309.16Z"/><path class="cls-38" d="M544.6,305.56A35.72,35.72,0,0,1,580,269.84h54.63a35.73,35.73,0,0,1,35.72,35.73v35.72h-90A35.73,35.73,0,0,1,544.6,305.56Z"/><text class="cls-51" transform="translate(578.63 321.22)">hj?</text></g></g></g></g></svg>