<svg xmlns="http://www.w3.org/2000/svg" viewBox="0 0 265.1 148.81"><defs><style>.cls-1{fill:#221d34;}.cls-2{fill:#e7373a;}.cls-3{fill:#f6f6f6;}</style></defs><g id="Camada_2" data-name="Camada 2"><g id="apresenta"><path class="cls-1" d="M138.72,99.24A24.77,24.77,0,0,0,114,124a24.77,24.77,0,0,0,42.28,17.52,24.76,24.76,0,0,0,0-35A23.87,23.87,0,0,0,138.72,99.24Zm12.52,37.28a17.7,17.7,0,0,1-25-25,17.7,17.7,0,0,1,25,25Z"/><path class="cls-1" d="M264.08,101.94a4.31,4.31,0,0,0-1.46-.93,24.93,24.93,0,0,0-9.51-1.77,24.13,24.13,0,0,0-17.69,7.43v-3.89a3.54,3.54,0,1,0-7.07,0v42.45a3.54,3.54,0,0,0,7.07,0V124a17.69,17.69,0,0,1,17.69-17.69,17.61,17.61,0,0,1,6.9,1.33,3.36,3.36,0,0,0,1.55.35,3.53,3.53,0,0,0,3.54-3.53A3.49,3.49,0,0,0,264.08,101.94Z"/><path class="cls-1" d="M217.57,106.33a3.5,3.5,0,0,0-3.84,3.48V124a17.53,17.53,0,0,1-1.64,7.46,17.81,17.81,0,0,1-34-7.46V106.21a7,7,0,0,0-7-7V124a24.8,24.8,0,0,0,37,21.61,25.12,25.12,0,0,0,10.35-11.21,24.64,24.64,0,0,0,2.28-10.4V110A3.61,3.61,0,0,0,217.57,106.33Z"/><path class="cls-1" d="M81.48,99.2a24.61,24.61,0,0,0-17.81,7.58V83.64a3.5,3.5,0,0,0-7,0v61.67a3.5,3.5,0,1,0,7,0V124a17.71,17.71,0,0,1,1.63-7.46,18,18,0,0,1,7.44-8.06A17.81,17.81,0,0,1,99.29,124v21.31a3.5,3.5,0,1,0,7,0V124A24.83,24.83,0,0,0,81.48,99.2Z"/><path class="cls-2" d="M138.72,114.47a9.54,9.54,0,1,0,9.54,9.53A9.54,9.54,0,0,0,138.72,114.47Z"/><path class="cls-3" d="M41.35,39.47a1.63,1.63,0,0,1,.11.17A1.63,1.63,0,0,0,41.35,39.47Z"/><path class="cls-3" d="M41.68,40.17l0,.1Z"/><path class="cls-2" d="M80.91,0H60.18L56.69,0V13.74l.42.57c2.07,2.82,6.57,8.47,6.57,8.47V7H80.91C91,7,99.17,15,99.22,24.71a17.54,17.54,0,0,1-1.63,7.57,18,18,0,0,1-7.44,8.06,17.76,17.76,0,0,1-8.74,2.29,16.64,16.64,0,0,1-8.92-2.38,18.93,18.93,0,0,1-1.6-1.1l-.64-.47c-9.12-7-14.6-14.45-19.44-21C43.86,8.18,37.86,0,24.8,0A24.8,24.8,0,1,0,37,46.43a25,25,0,0,0,3-2.06,3.43,3.43,0,0,1-1.67.43,3.5,3.5,0,0,1-2.79-1.37l-2.29-2.94A17.81,17.81,0,1,1,24.8,7c9.53,0,13.84,5.87,20.38,14.77C50,28.4,56.09,36.63,66,44.23l.75.56c.62.46,1.35,1,2.13,1.45a23.68,23.68,0,0,0,12.52,3.38,24.78,24.78,0,0,0,24.8-24.95C106.13,11.08,94.78,0,80.91,0Z"/><path class="cls-2" d="M56.72,45.7c0,.11,0,.21,0,.32V65.21a3.5,3.5,0,0,0,7,0v-14l-.18-.11A76.4,76.4,0,0,1,56.72,45.7Z"/><path class="cls-2" d="M113.93,45.7c0,.11,0,.21,0,.32V65.21a3.5,3.5,0,0,0,7,0v-14l-.18-.11A77.88,77.88,0,0,1,113.93,45.7Z"/><path class="cls-2" d="M220.72,23.82v-13a3.61,3.61,0,0,0-3.15-3.63,3.5,3.5,0,0,0-3.84,3.48V24.86a17.61,17.61,0,0,1-1.64,7.47,17.82,17.82,0,0,1-34-7.47V7.08a7,7,0,0,0-7-7V24.86a24.75,24.75,0,0,0,42.61,17.22V55.35a17.83,17.83,0,0,1-17.81,17.81,17.61,17.61,0,0,1-7.47-1.64,17.83,17.83,0,0,1-7.28-6.19,3.5,3.5,0,0,0-5.79,3.93,25,25,0,0,0,10.14,8.61,24.81,24.81,0,0,0,35.2-22.52V23.82Z"/><path class="cls-2" d="M138.71.07h-24.8v24.8A24.8,24.8,0,1,0,138.71.07Zm16.18,32.27a17.79,17.79,0,0,1-16.18,10.34A17.83,17.83,0,0,1,120.9,24.87V7.06h17.81a17.83,17.83,0,0,1,16.18,25.28Z"/><path class="cls-1" d="M38.35,44.8A3.43,3.43,0,0,0,40,44.37a3,3,0,0,0,.48-.31,3.5,3.5,0,0,0,1.21-3.79l0-.1a3.49,3.49,0,0,0-.22-.53,1.63,1.63,0,0,0-.11-.17,3.48,3.48,0,0,0-.22-.36l-7.77-10a9.49,9.49,0,0,0,1-4.31,9.6,9.6,0,1,0-9.6,9.59,9.45,9.45,0,0,0,3.29-.59l5.18,6.67,2.29,2.94A3.5,3.5,0,0,0,38.35,44.8ZM24.8,28.52a3.7,3.7,0,1,1,3.7-3.7A3.7,3.7,0,0,1,24.8,28.52Z"/></g></g></svg>